<?xml version="1.0" encoding="utf-8"?>
<!-- Generator: Adobe Illustrator 22.0.1, SVG Export Plug-In . SVG Version: 6.00 Build 0)  -->
<svg version="1.1" id="Layer_1" xmlns="http://www.w3.org/2000/svg" xmlns:xlink="http://www.w3.org/1999/xlink" x="0px" y="0px"
	 viewBox="0 0 270 39.2" style="enable-background:new 0 0 270 39.2;" xml:space="preserve">
<style type="text/css">
	.st0{fill:#F19223;}
	.st1{fill:#16190C;}
</style>
<g>
	<path class="st0" d="M41.9,23.5c-1.3-1.3-3.8-1-5.5,0.8c-1.3,1.3-1.8,3-1.4,4.3c-2.2,2.9-5.7,4.4-9.1,3.8c-5.3-0.8-11.8-7.4-18-3.7
		C6,29.8,2.2,32.8,0,38.5c6.1-11.6,13.5-9.7,17-7.7c2.7,1.5,7.5,4.7,12.5,4.2c2.6-0.3,5.9-2.3,7.6-4.5c1.3,0.2,2.8-0.3,4-1.5
		C42.9,27.3,43.2,24.8,41.9,23.5"/>
	<path class="st0" d="M25.8,19.6h6.8c0-7.1,5.7-12.8,12.8-12.8s12.8,5.8,12.8,12.8c0,7.1-5.8,12.8-12.8,12.8v6.8
		c10.8,0,19.6-8.8,19.6-19.6S56.2,0,45.4,0S25.8,8.8,25.8,19.6"/>
	<polygon class="st1" points="78.5,6.3 87,6.3 87,8.2 80.5,8.2 80.5,12.1 86,12.1 86,13.9 80.5,13.9 80.5,19.5 78.5,19.5 	"/>
	<polygon class="st1" points="89,6.3 91,6.3 91,17.6 97.4,17.6 97.4,19.5 89,19.5 	"/>
	<polygon class="st1" points="100.7,14.1 96.7,6.3 98.8,6.3 101.6,12.2 104.4,6.3 106.6,6.3 102.6,14.1 102.6,19.5 100.7,19.5 	"/>
	<polygon class="st1" points="108.5,6.3 117,6.3 117,8.2 110.5,8.2 110.5,12 116,12 116,13.8 110.5,13.8 110.5,17.6 117,17.6 
		117,19.5 108.5,19.5 	"/>
	<path class="st1" d="M121,8.1h3.2c0.7,0,1.1,0.1,1.5,0.4c0.4,0.3,0.7,0.8,0.7,1.5c0,1.1-0.7,2.1-2.3,2.1h-3L121,8.1L121,8.1z
		 M119,19.5h2v-5.7h2.6l2.7,5.7h2.4l-3.1-5.9c1.6-0.5,2.6-1.9,2.6-3.7c0-1.2-0.6-2.2-1.3-2.8c-0.7-0.6-1.6-0.9-2.7-0.9H119V19.5"/>
</g>
</svg>
