<?xml version="1.0" encoding="utf-8"?>
<!-- Generator: Adobe Illustrator 18.0.0, SVG Export Plug-In . SVG Version: 6.00 Build 0)  -->
<!DOCTYPE svg PUBLIC "-//W3C//DTD SVG 1.1//EN" "http://www.w3.org/Graphics/SVG/1.1/DTD/svg11.dtd">
<svg version="1.1" id="Layer_1" xmlns="http://www.w3.org/2000/svg" xmlns:xlink="http://www.w3.org/1999/xlink" x="0px" y="0px"
	 viewBox="0 0 270 39.2" enable-background="new 0 0 270 39.2" xml:space="preserve">
<g>
	<path fill="#F19223" d="M41.9,23.5c-1.3-1.3-3.8-1-5.5,0.8c-1.3,1.3-1.8,3-1.4,4.3c-2.2,2.9-5.7,4.4-9.1,3.8
		c-5.3-0.8-11.8-7.4-18-3.7C6,29.8,2.2,32.8,0,38.5c6.1-11.6,13.5-9.7,17-7.7c2.7,1.5,7.5,4.7,12.5,4.2c2.6-0.3,5.9-2.3,7.6-4.5
		c1.3,0.2,2.8-0.3,4-1.5C42.9,27.3,43.2,24.8,41.9,23.5"/>
	<path fill="#F19223" d="M25.8,19.6h6.8c0-7.1,5.7-12.8,12.8-12.8c7.1,0,12.8,5.8,12.8,12.8c0,7.1-5.8,12.8-12.8,12.8v6.8
		c10.8,0,19.6-8.8,19.6-19.6C65,8.8,56.2,0,45.4,0C34.6,0,25.8,8.8,25.8,19.6"/>
	<polygon fill="#16190C" points="78.5,6.3 87,6.3 87,8.2 80.5,8.2 80.5,12.1 86,12.1 86,13.9 80.5,13.9 80.5,19.5 78.5,19.5 	"/>
	<polygon fill="#16190C" points="89,6.3 91,6.3 91,17.6 97.4,17.6 97.4,19.5 89,19.5 	"/>
	<polygon fill="#16190C" points="100.7,14.1 96.7,6.3 98.8,6.3 101.6,12.2 104.4,6.3 106.6,6.3 102.6,14.1 102.6,19.5 100.7,19.5 	
		"/>
	<polygon fill="#16190C" points="108.5,6.3 117,6.3 117,8.2 110.5,8.2 110.5,12 116,12 116,13.8 110.5,13.8 110.5,17.6 117,17.6 
		117,19.5 108.5,19.5 	"/>
	<path fill="#16190C" d="M121,8.1h3.2c0.7,0,1.1,0.1,1.5,0.4c0.4,0.3,0.7,0.8,0.7,1.5c0,1.1-0.7,2.1-2.3,2.1h-3V8.1z M119,19.5h2
		v-5.7h2.6l2.7,5.7h2.4l-3.1-5.9c1.6-0.5,2.6-1.9,2.6-3.7c0-1.2-0.6-2.2-1.3-2.8c-0.7-0.6-1.6-0.9-2.7-0.9H119V19.5"/>
	<path fill="#848484" d="M144.2,15.8c-0.5,2.5-2.4,3.8-4.6,3.8c-2.1,0-3.5-1.2-4.2-2.4c-0.4-0.8-0.6-1.2-0.6-4.3
		c0-3.2,0.1-3.6,0.6-4.4c0.6-1.2,2.1-2.4,4.2-2.4c2.5,0,4.2,1.8,4.6,3.9h-2.1c-0.3-1-1.3-1.9-2.5-1.9c-1,0-1.6,0.4-2,1
		c-0.5,0.7-0.7,1-0.7,3.8c0,2.7,0.2,3.1,0.7,3.8c0.4,0.5,1.1,1,2,1c1.1,0,2-0.6,2.5-1.8H144.2"/>
	<path fill="#848484" d="M147.1,12.9c0-2.7,0.2-3.1,0.7-3.8c0.4-0.5,1.1-1,2-1c1,0,1.6,0.4,2.1,1c0.5,0.7,0.7,1.1,0.7,3.8
		c0,2.7-0.1,3.1-0.7,3.8c-0.4,0.5-1.1,1-2.1,1c-0.9,0-1.6-0.4-2-1C147.3,16,147.1,15.6,147.1,12.9 M145.1,12.9
		c0,3.2,0.2,3.6,0.6,4.3c0.6,1.2,2.1,2.4,4.1,2.4c2.1,0,3.5-1.2,4.2-2.4c0.4-0.8,0.6-1.2,0.6-4.3c0-3.2-0.2-3.6-0.6-4.4
		c-0.6-1.2-2.1-2.4-4.2-2.4c-2.1,0-3.5,1.2-4.1,2.4C145.3,9.3,145.1,9.7,145.1,12.9"/>
	<polygon fill="#848484" points="156.9,6.3 158.8,6.3 162.6,14.9 166.3,6.3 168.2,6.3 168.2,19.5 166.2,19.5 166.2,11.3 166.2,11.3 
		163.4,17.6 161.7,17.6 159,11.3 158.9,11.3 158.9,19.5 156.9,19.5 	"/>
	<polygon fill="#848484" points="171,6.3 172.9,6.3 176.7,14.9 180.4,6.3 182.3,6.3 182.3,19.5 180.3,19.5 180.3,11.3 180.3,11.3 
		177.5,17.6 175.8,17.6 173.1,11.3 173,11.3 173,19.5 171,19.5 	"/>
	<path fill="#848484" d="M184.9,6.3h2v8.5c0,1.8,1.2,2.8,2.7,2.8c1.5,0,2.7-1,2.7-2.8V6.3h2v8.8c0,2.8-2.1,4.6-4.7,4.6
		c-2.6,0-4.7-1.8-4.7-4.6V6.3"/>
	<polygon fill="#848484" points="196.8,6.3 198.7,6.3 204.7,15.7 204.7,15.7 204.7,6.3 206.7,6.3 206.7,19.5 204.8,19.5 198.9,10.1 
		198.8,10.1 198.8,19.5 196.8,19.5 	"/>
	<rect x="209.5" y="6.3" fill="#848484" width="2" height="13.2"/>
	<path fill="#848484" d="M223.3,15.8c-0.5,2.5-2.4,3.8-4.7,3.8c-2.1,0-3.5-1.2-4.1-2.4c-0.4-0.8-0.6-1.2-0.6-4.3
		c0-3.2,0.1-3.6,0.6-4.4c0.6-1.2,2.1-2.4,4.1-2.4c2.5,0,4.2,1.8,4.7,3.9h-2.1c-0.3-1-1.3-1.9-2.5-1.9c-0.9,0-1.6,0.4-2,1
		c-0.5,0.7-0.7,1-0.7,3.8c0,2.7,0.1,3.1,0.7,3.8c0.4,0.5,1.1,1,2,1c1.1,0,2-0.6,2.5-1.8H223.3"/>
	<path fill="#848484" d="M227,14.8l1.9-5.8h0l1.9,5.8H227z M232.5,19.5h2.1l-4.8-13.2h-1.7l-4.8,13.2h2.1l1-3h5L232.5,19.5"/>
	<polygon fill="#848484" points="236.9,8.1 233.3,8.1 233.3,6.3 242.5,6.3 242.5,8.1 238.9,8.1 238.9,19.5 236.9,19.5 	"/>
	<rect x="243.9" y="6.3" fill="#848484" width="2" height="13.2"/>
	<path fill="#848484" d="M250.3,12.9c0-2.7,0.1-3.1,0.7-3.8c0.4-0.5,1.1-1,2-1c1,0,1.6,0.4,2,1c0.5,0.7,0.7,1.1,0.7,3.8
		c0,2.7-0.1,3.1-0.7,3.8c-0.4,0.5-1.1,1-2,1c-0.9,0-1.6-0.4-2-1C250.4,16,250.3,15.6,250.3,12.9 M248.3,12.9c0,3.2,0.1,3.6,0.6,4.3
		c0.6,1.2,2.1,2.4,4.1,2.4c2.1,0,3.5-1.2,4.2-2.4c0.4-0.8,0.6-1.2,0.6-4.3c0-3.2-0.1-3.6-0.6-4.4c-0.6-1.2-2.1-2.4-4.2-2.4
		c-2.1,0-3.5,1.2-4.1,2.4C248.4,9.3,248.3,9.7,248.3,12.9"/>
	<polygon fill="#848484" points="260.1,6.3 262,6.3 268,15.7 268,15.7 268,6.3 270,6.3 270,19.5 268.1,19.5 262.1,10.1 262.1,10.1 
		262.1,19.5 260.1,19.5 	"/>
</g>
</svg>
