<?xml version="1.0" encoding="utf-8"?>
<!-- Generator: Adobe Illustrator 18.0.0, SVG Export Plug-In . SVG Version: 6.00 Build 0)  -->
<!DOCTYPE svg PUBLIC "-//W3C//DTD SVG 1.1//EN" "http://www.w3.org/Graphics/SVG/1.1/DTD/svg11.dtd">
<svg version="1.1" id="Layer_1" xmlns="http://www.w3.org/2000/svg" xmlns:xlink="http://www.w3.org/1999/xlink" x="0px" y="0px"
	 viewBox="0 0 270 110.3" enable-background="new 0 0 270 110.3" xml:space="preserve">
<g>
	<g>
		<path fill="#231F20" d="M55.2,110.3C24.7,110.3,0,85.6,0,55.2C0,24.7,24.7,0,55.2,0c30.4,0,55.2,24.7,55.2,55.2
			C110.3,85.6,85.6,110.3,55.2,110.3L55.2,110.3z M55.2,4.3C27.1,4.3,4.3,27.1,4.3,55.2c0,28.1,22.8,50.9,50.9,50.9
			c28.1,0,50.9-22.8,50.9-50.9C106.1,27.1,83.2,4.3,55.2,4.3L55.2,4.3z"/>
	</g>
	<g>
		<path fill="#ED1846" d="M73.9,73.7c-2.4,0-4.6-1.5-6.1-4.1L54.9,47.3c-1.5-2.6-1.7-5.3-0.5-7.4c1.2-2.1,3.6-3.2,6.6-3.2l25.7,0
			c3,0,5.4,1.2,6.6,3.2s1,4.7-0.5,7.4L80,69.6C78.5,72.2,76.3,73.7,73.9,73.7L73.9,73.7z M86.8,41L61,41c-1.5,0-2.5,0.4-2.9,1.1
			c-0.4,0.7-0.2,1.8,0.5,3.1l12.9,22.3c0.7,1.3,1.6,2,2.4,2c0.8,0,1.7-0.7,2.4-2l12.8-22.3c0.7-1.3,0.9-2.4,0.5-3.1
			C89.3,41.4,88.2,41,86.8,41L86.8,41z"/>
	</g>
	<g>
		<path fill="#231F20" d="M49.4,73.7L49.4,73.7l-25.8-0.1c-3,0-5.4-1.2-6.6-3.3c-1.2-2.1-1-4.7,0.5-7.4l12.9-22.3
			c1.5-2.6,3.7-4.1,6.1-4.1c2.4,0,4.6,1.5,6.1,4.1l12.8,22.3c1.5,2.6,1.7,5.3,0.5,7.4C54.8,72.5,52.4,73.7,49.4,73.7L49.4,73.7z
			 M49.4,69.4c1.4,0,2.5-0.4,2.9-1.1c0.4-0.7,0.2-1.8-0.5-3.1L39,42.9c-0.7-1.3-1.6-2-2.4-2l0,0c-0.8,0-1.7,0.7-2.4,2L21.2,65.1
			c-0.7,1.3-0.9,2.4-0.5,3.1c0.4,0.7,1.5,1.1,2.9,1.1L49.4,69.4"/>
	</g>
	<g>
		<g>
			<path fill="#231F20" d="M154.6,73.3H150l0-30c0.2-1,0.2-1.8-0.1-2.2c-0.3-0.4-1-0.5-2.1-0.4l-0.1,0l-15.7,0
				c-1.2-0.2-2-0.1-2.4,0.4c-0.3,0.4-0.4,1-0.3,1.8l0,30.4h-4.5V43.1c0.2-5.1,3-6.3,5.3-6.3h19.2c1.9,0,3.4,0.5,4.3,1.6
				c1,1.1,1.3,2.8,1,5V73.3L154.6,73.3z"/>
		</g>
		<g>
			<path fill="#231F20" d="M188.4,73.1c-0.1,0-0.2,0-0.4,0h-19.7c-2.3-0.1-5.1-1.2-5.3-6.3V41.6c-0.2-1.5,0.1-2.6,0.8-3.5
				c0.9-1,2.4-1.5,4.5-1.5h0.1h20.9c1.3,0,2.3,0.4,2.9,1.1c0.7,0.9,0.9,2.1,0.6,3.9v24.9c0.3,2.4,0,4.2-0.9,5.3
				C191,72.7,189.9,73.1,188.4,73.1L188.4,73.1z M168.8,40.2c-0.5,0-0.9,0.1-1.2,0.4c-0.3,0.3-0.3,0.8-0.3,1.5v24.3
				c-0.1,1.2,0.1,2,0.5,2.4c0.4,0.5,1.2,0.6,2.2,0.4l0.1,0l15.6,0c0.3,0,0.5,0.1,0.8,0.1l0,0c0.6,0,1.1-0.1,1.3-0.4
				c0.3-0.4,0.4-1.1,0.1-2.2l0-0.1V42.3c0.1-0.8,0-1.4-0.3-1.7c-0.3-0.4-1-0.5-2-0.4l-15.8,0l-0.1,0
				C169.6,40.2,169.2,40.2,168.8,40.2L168.8,40.2z"/>
		</g>
		<g>
			<path fill="#231F20" d="M205.8,72.9c-3.4,0-5.2-1.7-5.3-5V42.7c0.3-5.1,3.2-6.3,5.6-6.3H227c2.1,0,3.6,0.5,4.3,1.6
				c0.7,1.2,0.6,2.8-0.5,5.1l-7.6,12.7l-8.5,13.9c-1.4,2.1-3.6,3.2-6.6,3.2h-1.9C206.1,72.9,206,72.9,205.8,72.9L205.8,72.9z
				 M206.8,40.2c-0.8,0-1.3,0.2-1.7,0.5c-0.3,0.4-0.4,1-0.3,1.9v0.1v24.6c-0.1,0.7,0,1.3,0.3,1.6c0.4,0.4,1.3,0.5,2.6,0.3l0.1,0
				c1.3,0,2.3-0.6,3.2-1.9l14.2-24.6c1-1.4,0.8-1.9,0.8-2c-0.1-0.2-0.5-0.3-1.3-0.3c-0.2,0-0.4,0-0.6,0l-16.3,0l0,0
				C207.5,40.2,207.2,40.2,206.8,40.2L206.8,40.2z"/>
		</g>
		<g>
			<path fill="#231F20" d="M244,72.9c-3.2,0-5-1.7-5-5V42.7c0.2-5.1,3-6.3,5.3-6.3h19.8c2,0,3.4,0.5,4,1.6c0.7,1.2,0.6,2.8-0.4,5.1
				l-7.4,13.1h-5l7.6-13.5c1-1.5,0.8-1.9,0.8-2c-0.1-0.2-0.4-0.3-1.2-0.3c-0.2,0-0.4,0-0.6,0l-15.7,0l-0.1,0
				c-1.2-0.2-2.1-0.1-2.5,0.4c-0.3,0.4-0.5,1.1-0.3,2v24.7c-0.1,0.8,0.1,1.3,0.3,1.6c0.4,0.4,1.2,0.5,2.4,0.2l0.1,0H270v3.7h-25.6
				C244.3,72.9,244.2,72.9,244,72.9L244,72.9z"/>
		</g>
	</g>
</g>
</svg>
