<?xml version="1.0" encoding="utf-8"?>
<!-- Generator: Adobe Illustrator 18.0.0, SVG Export Plug-In . SVG Version: 6.00 Build 0)  -->
<!DOCTYPE svg PUBLIC "-//W3C//DTD SVG 1.1//EN" "http://www.w3.org/Graphics/SVG/1.1/DTD/svg11.dtd">
<svg version="1.1" xmlns="http://www.w3.org/2000/svg" xmlns:xlink="http://www.w3.org/1999/xlink" x="0px" y="0px"
	 viewBox="0 0 270 88.4" enable-background="new 0 0 270 88.4" xml:space="preserve">
<g id="Layer_2">
</g>
<g id="_x30_">
	<g>
		<path fill="#C0C0C0" d="M241.4,76.2c17.7-8.3,25.4-29.3,17.1-47.1c-3.5-7.5-9.6-13.6-17.1-17.1l0,0h-83.7l-16.5,29.3l-4.6-8.1
			l-1.6,2.9l23,40.1L241.4,76.2L241.4,76.2z"/>
		<path fill="#FF0000" d="M28.6,76.2l83.4,0l16.7-29.3l4.7,8.3l1.6-2.9l-22.7-40.2H28.6l0,0C10.9,20.3,3.2,41.4,11.5,59.1
			C15,66.7,21.1,72.7,28.6,76.2L28.6,76.2z"/>
		<g>
			<polygon points="30,18.2 22.4,18.2 22.4,69.9 42,69.9 42,57.2 30,57.2 			"/>
			<rect x="45.7" y="18.2" width="7.8" height="51.7"/>
			<polygon points="186.6,18.2 178.9,18.2 178.9,69.9 198.6,69.9 198.6,57.2 186.6,57.2 			"/>
			<polygon points="103.9,49.8 103.7,53 102.7,56.4 101.7,57.9 99.7,58.7 98.2,58.3 96.6,56.4 95.8,54 95.4,49.8 95.4,18.2 
				87.8,18.2 87.8,49 87.8,49.2 87.9,53.2 88.5,57.7 88.9,60 90.2,63.7 91.1,65.7 92.7,68.1 94.2,69.4 96.3,70.3 98.3,70.6 
				100.2,70.8 101.7,70.7 103.8,70.1 105.7,69 107,67.6 108.7,64.8 109.9,61.5 110.8,57.7 110.8,57.5 111.4,53.3 111.5,49 
				111.5,18.2 103.9,18.2 			"/>
			<polygon points="75.5,46.8 66.1,18.2 59,18.2 59,69.9 66.2,69.9 66.2,41.5 75.5,69.9 82.7,69.9 82.7,18.2 75.5,18.2 			"/>
			<polygon points="167.9,52.9 166.9,56.2 165.6,58 163.6,58.8 161.5,58.1 160,55.6 159.4,53.2 159,49.1 158.8,43.8 158.9,41.4 
				159.1,36.9 159.8,33.6 160.3,32.5 161.8,30.1 163.9,29.3 163.9,29.3 165.9,30.3 165.9,30.3 167.5,33.1 168.2,36.6 175,33.5 
				174.6,31.1 173.7,27.2 172.4,23.9 171,21.3 169.8,19.8 168,18.5 166,17.6 163.7,17.3 161.4,17.6 159.3,18.4 157.4,19.8 
				155.8,21.7 154.4,24.2 154.3,24.4 153.2,27.3 152.3,30.8 151.6,34.7 151.3,39.1 151.1,43.9 151.2,48 151.6,52.3 152.1,56.3 
				153,59.7 154.3,63.4 155.7,66.2 157.4,68.3 157.8,68.7 159.6,69.8 161.6,70.5 164,70.8 165.6,70.6 167.8,70 169.5,68.7 170,68.3 
				171.7,65.9 173.1,62.8 173.7,61.1 174.5,57.3 175.3,53 168.5,48.8 			"/>
			<polygon points="218.2,49.8 217.9,53 217,56.4 216,57.9 213.9,58.7 212.5,58.3 210.8,56.4 210.1,54 209.7,49.8 209.7,18.2 
				202.1,18.2 202.1,49 202.1,49.2 202.3,53.2 202.8,57.7 203.2,60 204.4,63.7 205.4,65.7 207.1,68.1 208.5,69.4 210.6,70.3 
				212.6,70.6 214.5,70.8 216,70.7 218.1,70.1 219.9,69 221.3,67.6 223,64.8 224.3,61.5 225.2,57.7 225.2,57.5 225.7,53.3 225.8,49 
				225.8,18.2 218.2,18.2 			"/>
			<path d="M253.5,50.6l-0.9-3.6l-0.4-0.7l-1.5-2.3l-2.1-1.6l1.2-1l1.5-2.4l0.1-0.1l1-3.6l0.4-4.3l-0.1-1.9l-0.6-3.9l-1.2-3.3
				l-1.3-2l-1.9-1.3l-2.3-0.4h-14.3v51.7h13.2l1-0.1l2.4-0.6l1.2-0.4l1.8-1.2l1.2-1.8l1.3-3.3l0.5-2.9l0.4-4.3v-0.3L253.5,50.6z
				 M238.6,28.7h3.4h0.7l1.8,1.2l0.7,3.5l-0.7,3.7l-0.4,0.5l-2.1,0.7h-3.4V28.7z M246.2,53.6l-0.9,3.7l-0.5,0.7l-2.2,0.7h-3.9V48.3
				h3.9l1.1,0.1l1.8,1.2l0.8,3.7V53.6z"/>
		</g>
		<g id="LWPOLYLINE_10_">
			<path d="M141.2,41.4l-4.6-8.1L155.8,0l6.6,3.8H243c10.7,4.4,19.3,12.9,23.7,23.7c9.2,22.3-1.4,47.7-23.7,56.9l-80.4,0.1l-7.1,4
				l-43.2-76.3H28.6C10.9,20.3,3.2,41.4,11.5,59.1c3.5,7.5,9.6,13.6,17.1,17.1l83.4,0l16.8-29.3l4.7,8.3l-18.9,33.3l-7.1-4L27,84.4
				C16.2,80,7.7,71.5,3.3,60.7C-5.9,38.5,4.7,13,27,3.8h80.7l6.6-3.8L158,76.2l83.4,0c17.7-8.3,25.4-29.3,17.1-47.1
				c-3.5-7.5-9.6-13.6-17.1-17.1h-83.7L141.2,41.4z"/>
		</g>
	</g>
</g>
</svg>
